<?xml version="1.0" encoding="UTF-8" standalone="no"?>
<!-- Created with Inkscape (http://www.inkscape.org/) -->

<svg
   width="67.9142mm"
   height="68.175171mm"
   viewBox="0 0 67.9142 68.175171"
   version="1.1"
   id="svg5"
   xml:space="preserve"
   inkscape:version="1.2.2 (732a01da63, 2022-12-09)"
   sodipodi:docname="tmp,svg.svg"
   xmlns:inkscape="http://www.inkscape.org/namespaces/inkscape"
   xmlns:sodipodi="http://sodipodi.sourceforge.net/DTD/sodipodi-0.dtd"
   xmlns="http://www.w3.org/2000/svg"
   xmlns:svg="http://www.w3.org/2000/svg"><sodipodi:namedview
     id="namedview7"
     pagecolor="#ffffff"
     bordercolor="#000000"
     borderopacity="0.25"
     inkscape:showpageshadow="2"
     inkscape:pageopacity="0.0"
     inkscape:pagecheckerboard="0"
     inkscape:deskcolor="#d1d1d1"
     inkscape:document-units="mm"
     showgrid="false"
     inkscape:zoom="0.5"
     inkscape:cx="-363"
     inkscape:cy="441"
     inkscape:window-width="1920"
     inkscape:window-height="991"
     inkscape:window-x="-9"
     inkscape:window-y="-9"
     inkscape:window-maximized="1"
     inkscape:current-layer="layer1" /><defs
     id="defs2" /><g
     inkscape:label="Layer 1"
     inkscape:groupmode="layer"
     id="layer1"
     transform="translate(-9.2505982,-165.92527)"><path
       id="path383"
       style="fill:#808080;fill-opacity:1;stroke-width:1.092;stroke-linecap:round;stroke-linejoin:round;stroke-dasharray:0.1092, 0.1092;stroke-dashoffset:0;paint-order:markers fill stroke"
       d="m 43.207698,165.92527 a 33.956955,34.087555 0 0 0 -33.9570994,34.08784 33.956955,34.087555 0 0 0 33.9570994,34.08733 33.956955,34.087555 0 0 0 33.957105,-34.08733 33.956955,34.087555 0 0 0 -0.04961,-1.83037 h -0.0072 c -0.06111,-1.48732 -1.25174,-2.6756 -2.76882,-2.70992 l -3.28404,-0.0744 c -1.59648,-0.0361 -2.93222,1.21966 -2.99465,2.81533 l -0.0057,0.13953 c -0.0043,0.10981 -0.002,0.21823 0.0057,0.32504 l -0.001,0.045 c -0.0089,0.38144 -0.02595,0.7543 -0.04961,1.11673 a 24.684097,24.684097 0 0 1 0.0124,0.43408 24.684097,24.684097 0 0 1 -24.683763,24.68428 24.684097,24.684097 0 0 1 -24.684282,-24.68428 24.684097,24.684097 0 0 1 24.684282,-24.68428 24.684097,24.684097 0 0 1 16.368513,6.23631 l -5.18212,0.23926 c -1.08452,0.0501 -1.88924,0.96195 -1.80454,2.04432 l 0.27699,3.53984 c 0.06973,0.89109 0.72056,1.61033 1.55339,1.80919 l 17.96686,-0.83406 0.55087,-0.0599 c 1.03591,-0.11269 1.75845,-1.03479 1.62006,-2.06758 l -2.3952,-17.87436 c -0.13839,-1.03279 -1.08334,-1.77357 -2.11925,-1.66088 l -3.38791,0.36845 c -1.03591,0.11269 -1.75845,1.03479 -1.62006,2.06758 l 0.70229,5.23947 a 33.956955,34.087555 0 0 0 -22.660635,-8.71213 z" /></g></svg>
