<?xml version="1.0" encoding="UTF-8" standalone="no"?>
<!-- Created with Inkscape (http://www.inkscape.org/) -->

<svg
   width="67.970528mm"
   height="67.970024mm"
   viewBox="0 0 67.970528 67.970024"
   version="1.1"
   id="svg5"
   xml:space="preserve"
   inkscape:export-filename="save.svg"
   inkscape:export-xdpi="96"
   inkscape:export-ydpi="96"
   xmlns:inkscape="http://www.inkscape.org/namespaces/inkscape"
   xmlns:sodipodi="http://sodipodi.sourceforge.net/DTD/sodipodi-0.dtd"
   xmlns="http://www.w3.org/2000/svg"
   xmlns:svg="http://www.w3.org/2000/svg"><sodipodi:namedview
     id="namedview7"
     pagecolor="#ffffff"
     bordercolor="#000000"
     borderopacity="0.25"
     inkscape:showpageshadow="2"
     inkscape:pageopacity="0.0"
     inkscape:pagecheckerboard="0"
     inkscape:deskcolor="#d1d1d1"
     inkscape:document-units="mm"
     showgrid="false" /><defs
     id="defs2" /><g
     inkscape:label="Layer 1"
     inkscape:groupmode="layer"
     id="layer1"
     transform="translate(-48.576364,-96.783757)"><path
       id="rect231"
       style="fill:#808080;fill-opacity:1;stroke-width:0.264583"
       d="m 54.8566,96.783757 c -3.479031,0 -6.280237,2.800686 -6.280237,6.279723 v 55.41057 c 0,3.47902 2.801206,6.27972 6.280237,6.27972 h 55.41005 c 3.47904,0 6.28024,-2.8007 6.28024,-6.27972 V 114.71858 L 96.586869,96.783757 Z M 82.561369,117.90598 A 11.754332,11.754332 0 0 1 94.31569,129.6603 11.754332,11.754332 0 0 1 82.561369,141.41462 11.754332,11.754332 0 0 1 70.807048,129.6603 11.754332,11.754332 0 0 1 82.561369,117.90598 Z" /><rect
       style="fill:#cccccc;fill-opacity:1;stroke-width:0.342278"
       id="rect1147"
       width="34.539177"
       height="15.884328"
       x="65.014915"
       y="145.72948"
       rx="2.216414"
       ry="2.2238059" /></g></svg>
