<?xml version="1.0" encoding="UTF-8" standalone="no"?>
<!-- Created with Inkscape (http://www.inkscape.org/) -->

<svg
   width="67.693542mm"
   height="67.970535mm"
   viewBox="0 0 67.693542 67.970535"
   version="1.1"
   id="svg5"
   xml:space="preserve"
   inkscape:export-filename="save.svg"
   inkscape:export-xdpi="96"
   inkscape:export-ydpi="96"
   xmlns:inkscape="http://www.inkscape.org/namespaces/inkscape"
   xmlns:sodipodi="http://sodipodi.sourceforge.net/DTD/sodipodi-0.dtd"
   xmlns="http://www.w3.org/2000/svg"
   xmlns:svg="http://www.w3.org/2000/svg"><sodipodi:namedview
     id="namedview7"
     pagecolor="#ffffff"
     bordercolor="#000000"
     borderopacity="0.25"
     inkscape:showpageshadow="2"
     inkscape:pageopacity="0.0"
     inkscape:pagecheckerboard="0"
     inkscape:deskcolor="#d1d1d1"
     inkscape:document-units="mm"
     showgrid="false"
     inkscape:zoom="0.71624579"
     inkscape:cx="261.78164"
     inkscape:cy="662.48208"
     inkscape:window-width="1920"
     inkscape:window-height="991"
     inkscape:window-x="-9"
     inkscape:window-y="-9"
     inkscape:window-maximized="1"
     inkscape:current-layer="layer1"
     inkscape:lockguides="true" /><defs
     id="defs2" /><g
     inkscape:label="Layer 1"
     inkscape:groupmode="layer"
     id="layer1"
     transform="translate(-55.502557,-87.36366)"><path
       id="path1757"
       style="display:inline;fill:#808080;fill-opacity:1;stroke-width:0.264583"
       d="m 83.115857,87.36366 -1.103292,7.355106 a 27.426771,27.426771 0 0 0 -6.471956,2.670638 l -5.492688,-4.069002 -9.004102,8.727118 4.247803,5.71851 a 27.426771,27.426771 0 0 0 -2.630847,6.58875 l -7.01921,1.03766 -0.13901,12.37496 7.446574,1.2826 a 27.426771,27.426771 0 0 0 2.614311,5.99447 l -4.42712,6.20582 8.680607,8.77363 6.478158,-4.68602 a 27.426771,27.426771 0 0 0 5.843571,2.3058 l 1.254187,7.69049 h 12.328446 l 1.351856,-7.90236 a 27.426771,27.426771 0 0 0 5.582605,-2.37402 l 0.0382,0.0713 6.51071,4.6178 8.63462,-8.68112 -4.69325,-6.53449 a 27.426771,27.426771 0 0 0 2.3368,-5.52111 l 7.71323,-1.19682 v -12.55944 l -7.39955,-0.82269 a 27.426771,27.426771 0 0 0 -2.49701,-6.37636 l 4.35529,-5.7304 -8.68112,-9.235092 -5.94899,4.383195 a 27.426771,27.426771 0 0 0 -6.109705,-2.63033 L 95.490812,87.36366 Z m 6.383073,21.84259 A 11.644679,11.563533 0 0 1 101.1437,120.76989 11.644679,11.563533 0 0 1 89.49893,132.33352 11.644679,11.563533 0 0 1 77.854163,120.76989 11.644679,11.563533 0 0 1 89.49893,109.20625 Z" /></g></svg>
